<svg width="16" height="14" fill="none" xmlns="http://www.w3.org/2000/svg"><path fill="#E5E5E5" d="M0 0h16v14H0z"/><g clip-path="url(#a)"><path fill="#F2F2F2" d="M-1082-543H198v2244h-1280z"/><g filter="url(#b)"><path fill="#fff" d="M-1042-543H158v2238.9h-1200z"/><path fill="#fff" d="M-1042-67H158v1235h-1200z"/><rect x="-15" y="-16" width="46" height="46" rx="3" stroke="#E5E5E5" stroke-width="2"/><g fill="#000" clip-path="url(#c)"><path d="M16 12H0v2h16v-2ZM14 2v6H2V2h12Zm2-2H0v10h16V0Z"/></g></g></g><defs><clipPath id="a"><path fill="#fff" transform="translate(-1082 -543)" d="M0 0h1280v2244H0z"/></clipPath><clipPath id="c"><path fill="#fff" d="M0 0h16v14H0z"/></clipPath><filter id="b" x="-1057" y="-558" width="1230" height="2275.9" filterUnits="userSpaceOnUse" color-interpolation-filters="sRGB"><feFlood flood-opacity="0" result="BackgroundImageFix"/><feColorMatrix in="SourceAlpha" values="0 0 0 0 0 0 0 0 0 0 0 0 0 0 0 0 0 0 127 0" result="hardAlpha"/><feOffset/><feGaussianBlur stdDeviation="7.5"/><feColorMatrix values="0 0 0 0 0 0 0 0 0 0 0 0 0 0 0 0 0 0 0.2 0"/><feBlend in2="BackgroundImageFix" result="effect1_dropShadow_0_1"/><feBlend in="SourceGraphic" in2="effect1_dropShadow_0_1" result="shape"/></filter></defs></svg>